<svg width="16" height="16" viewBox="0 0 16 16" fill="none" xmlns="http://www.w3.org/2000/svg">
<path d="M14.0742 -8.23615e-07L1.92579 -2.92591e-07C1.20181 -2.60945e-07 -6.01248e-07 2.24506 -5.78211e-07 2.77207L-1.21171e-07 13.2279C-9.81347e-08 13.7549 1.18733 16 1.92579 16L14.0742 16C14.7982 16 16 13.7549 16 13.2279L16 2.77207C15.9855 2.24506 14.7982 -8.55262e-07 14.0742 -8.23615e-07Z" fill="#FF4338"/>
<path d="M4.11225 13.9446C3.20003 13.2806 2.75116 12.332 2.75116 11.1093L2.75116 1.73907C2.75116 1.43341 3.08419 1.19098 3.5041 1.19098L3.54754 1.19098C3.96745 1.19098 4.30048 1.43341 4.30048 1.73907L4.30048 11.0777C4.30048 12.0368 4.60455 12.7536 5.22718 13.249C5.83532 13.7338 6.73306 13.9868 7.90591 13.9868C9.07876 13.9868 9.9765 13.7443 10.5991 13.249C11.2217 12.7641 11.5258 12.0368 11.5258 11.0777L11.5258 1.73907C11.5258 1.43341 11.8589 1.19098 12.2788 1.19098C12.6987 1.19098 13.0317 1.43341 13.0317 1.73907L13.0317 11.1093C13.0317 12.332 12.5828 13.2806 11.6851 13.9446C10.7729 14.6086 9.51315 14.9459 7.89143 14.9459C6.28419 14.9459 5.02446 14.6086 4.11225 13.9446Z" fill="white"/>
<path d="M8 5C9.10457 5 10 4.10457 10 3C10 1.89543 9.10457 1 8 1C6.89543 1 6 1.89543 6 3C6 4.10457 6.89543 5 8 5Z" fill="white"/>
</svg>
