<svg width="110" height="80" viewBox="0 0 110 80" fill="none" xmlns="http://www.w3.org/2000/svg">
<path d="M109.9 70.371V9.62896C109.9 6.00905 94.4796 0 90.8597 0H19.0407C15.4208 0 0 5.93665 0 9.62896V70.371C0 73.991 15.4208 80 19.0407 80H90.8597C94.4796 79.9276 109.9 73.991 109.9 70.371Z" fill="#FF4338"/>
<path d="M14.1181 20.5613C18.6791 16.0002 25.195 13.7559 33.5932 13.7559H97.9552C100.055 13.7559 101.72 15.421 101.72 17.5206V17.7378C101.72 19.8373 100.055 21.5025 97.9552 21.5025H33.8104C27.2221 21.5025 22.2991 23.0228 18.8963 26.1359C15.566 29.1767 13.8285 33.6654 13.8285 39.5296C13.8285 45.3939 15.4936 49.8826 18.8963 52.9957C22.2267 56.1088 27.2221 57.6292 33.8104 57.6292H97.9552C100.055 57.6292 101.72 59.2943 101.72 61.3939C101.72 63.4934 100.055 65.1586 97.9552 65.1586H33.5932C25.195 65.1586 18.6791 62.9142 14.1181 58.4255C9.55698 53.8645 7.24023 47.5658 7.24023 39.4572C7.24023 31.421 9.55698 25.1224 14.1181 20.5613Z" fill="white"/>
<path d="M23.3848 34.1719H28.163V34.4615C27.2219 34.5339 26.7875 34.8959 26.7875 35.5474C26.7875 35.9094 26.9323 36.561 27.2943 37.5746L28.8146 42.2081L30.9142 36.6334C31.059 36.199 31.1314 35.837 31.1314 35.6198C31.1314 34.8959 30.697 34.5339 29.8282 34.4615V34.1719H34.5341V34.4615C34.0997 34.5339 33.8101 34.6063 33.6653 34.7511C33.3757 34.9683 33.3033 35.1854 33.3033 35.5474C33.3033 35.837 33.3757 36.2714 33.5205 36.7782L35.1133 42.2081L37.068 37.285C37.2852 36.6334 37.43 36.199 37.43 35.837C37.43 35.4026 37.2852 35.0407 36.9956 34.8235C36.8508 34.6787 36.5612 34.5339 36.1268 34.4615V34.1719H39.7468V34.4615C39.3848 34.4615 39.0952 34.6063 38.8056 34.8235C38.5884 34.9683 38.4436 35.1854 38.2988 35.475C38.154 35.7646 37.9368 36.199 37.7196 36.7782L37.43 37.4298L34.4617 44.8144H34.0273L31.4934 36.4162L28.2354 44.6696H27.8011L25.3395 37.2126L25.0499 36.3438C24.7603 35.5474 24.4707 35.0407 24.1811 34.8235C24.0363 34.6787 23.7468 34.6063 23.3848 34.5339V34.1719Z" fill="white"/>
<path d="M43.3663 38.009C43.3663 38.4434 43.2939 38.733 43.2939 38.8778C43.2939 39.6018 43.3663 40.3258 43.5835 40.9773C43.8007 41.6289 44.0903 42.2081 44.4523 42.7149C44.8142 43.1493 45.2486 43.5113 45.8278 43.8009C46.407 44.0905 46.9138 44.1629 47.5654 44.1629C47.9998 44.1629 48.4342 44.0905 48.7961 43.9457C49.1581 43.8009 49.5201 43.5837 49.8097 43.2941C50.0993 43.0045 50.3889 42.5701 50.6061 41.9185L50.8957 41.9909C50.6785 42.9321 50.2441 43.6561 49.5201 44.1629C48.7961 44.6697 47.855 44.8868 46.6966 44.8868C45.683 44.8868 44.8142 44.7421 44.0903 44.3801C43.3663 44.0905 42.7147 43.5837 42.2803 42.8597C41.5563 41.9185 41.1943 40.7602 41.1943 39.3846C41.1943 37.5022 41.8459 36.0543 43.2215 35.0407C44.1627 34.2443 45.321 33.8823 46.5518 33.8823C47.2034 33.8823 47.855 34.0271 48.3618 34.2443C48.9409 34.4615 49.3753 34.8235 49.8097 35.2579C50.3889 35.9819 50.6785 36.8506 50.6785 37.8642H43.3663V38.009ZM48.7961 37.5022C48.7237 36.7059 48.579 36.0543 48.3618 35.6199C48.1446 35.1855 47.855 34.8959 47.493 34.6787C47.131 34.4615 46.6966 34.3167 46.3346 34.3167C45.6106 34.3167 45.0314 34.6063 44.4523 35.2579C43.9455 35.8371 43.5835 36.6335 43.5111 37.5746H48.7961V37.5022Z" fill="white"/>
<path d="M64.0724 43.5112L64.2896 43.6559C64 44.5247 63.276 44.9591 62.2624 44.9591C61.6833 44.9591 61.1765 44.8143 60.8145 44.5247C60.5249 44.3075 60.3077 44.0179 60.0181 43.5112C59.4389 44.0179 59.0769 44.3075 58.7873 44.5247C58.2805 44.8143 57.629 44.9591 56.905 44.9591C55.9638 44.9591 55.2398 44.7419 54.733 44.3075C54.2262 43.8731 53.8643 43.2216 53.8643 42.4976C53.8643 41.846 54.0815 41.2668 54.5158 40.76C54.733 40.4704 55.0226 40.3256 55.3846 40.1808C55.6742 40.036 56.181 39.8912 56.7602 39.7464C57.4842 39.5293 57.991 39.3845 58.3529 39.3121C58.7149 39.1673 59.0045 39.0225 59.2217 38.8777C59.5113 38.6605 59.6561 38.4433 59.8009 38.2261C59.8733 37.9365 59.9457 37.6469 59.9457 37.1401C59.9457 36.1989 59.7285 35.475 59.3665 35.0406C59.2217 34.8234 59.0045 34.6786 58.7149 34.5338C58.4977 34.3166 58.2081 34.2442 57.9186 34.2442C57.5566 34.2442 57.267 34.3166 57.0498 34.5338C56.7602 34.6786 56.6154 34.9682 56.4706 35.2578L56.181 35.9817C56.0362 36.3437 55.7466 36.5609 55.3122 36.5609C55.0226 36.5609 54.8054 36.4885 54.5882 36.2713C54.371 36.0541 54.2986 35.8369 54.2986 35.5474C54.2986 35.113 54.5882 34.751 55.1674 34.4614C55.457 34.3166 55.8914 34.1718 56.3982 34.0994C56.905 34.027 57.3394 33.9546 57.7738 33.9546C58.2805 33.9546 58.7873 34.027 59.3665 34.1718C59.9457 34.3166 60.3801 34.4614 60.7421 34.6786C61.2489 34.9682 61.6109 35.4026 61.7557 35.8369C61.8281 36.0541 61.8281 36.4885 61.8281 37.0677V41.6288C61.8281 42.4252 61.8281 42.932 61.9005 43.2216C62.0453 43.8007 62.4072 44.0903 62.914 44.0903C63.2036 44.0903 63.3484 44.0179 63.4932 43.9455C63.7104 43.9455 63.8552 43.8007 64.0724 43.5112ZM59.9457 38.6605C59.5113 39.0225 59.0045 39.3845 58.4977 39.674C57.9186 39.9636 57.4842 40.2532 57.267 40.398C57.0498 40.5428 56.8326 40.76 56.6154 40.9772C56.2534 41.484 56.0362 41.9908 56.0362 42.6424C56.0362 43.2216 56.181 43.6559 56.4706 44.0179C56.7602 44.3799 57.1222 44.5247 57.629 44.5247C58.0634 44.5247 58.4253 44.3799 58.7873 44.1627C59.1493 43.9455 59.4389 43.5835 59.5837 43.1492C59.8733 42.57 59.9457 41.7736 59.9457 40.76V38.6605Z" fill="white"/>
<path d="M69.068 35.9093C69.3576 35.4026 69.7196 34.9682 70.0816 34.751C70.7332 34.2442 71.5296 34.027 72.3983 34.027C72.9051 34.027 73.3395 34.1718 73.6291 34.389C73.9187 34.6062 73.9911 34.8958 73.9911 35.1854C73.9911 35.4026 73.9187 35.6197 73.7739 35.7645C73.6291 35.9093 73.4119 35.9817 73.1947 35.9817C72.9051 35.9817 72.6879 35.8369 72.4707 35.6198L72.1087 35.1854C71.8191 34.8958 71.4572 34.6786 71.0228 34.6786C70.4436 34.6786 70.0092 35.0406 69.7196 35.7645C69.43 36.4885 69.2852 37.5021 69.2852 38.8053V41.122V42.0632C69.2852 42.6424 69.2852 43.0044 69.3576 43.294C69.43 43.5836 69.5748 43.8007 69.7196 43.9455C69.9368 44.1627 70.3712 44.3075 71.0228 44.4523V44.7419H65.5205V44.4523C66.0273 44.3799 66.3893 44.3075 66.6065 44.1627C66.8237 44.0179 66.9685 43.8731 67.1133 43.5836C67.1857 43.3664 67.2581 43.0768 67.3305 42.7148C67.4029 42.3528 67.4029 41.7736 67.4029 41.0496V38.0089C67.4029 37.1401 67.4029 36.5609 67.3305 36.1989C67.2581 35.8369 67.1857 35.5474 67.0409 35.4026C66.8961 35.1854 66.7513 35.0406 66.5341 34.8958C66.3169 34.751 66.0273 34.751 65.6653 34.6786V34.389L68.8508 33.9546C68.9956 34.751 69.068 35.4026 69.068 35.9093Z" fill="white"/>
<path d="M91.2214 49.9549C97.0191 49.9549 101.719 45.2549 101.719 39.4572C101.719 33.6595 97.0191 28.9595 91.2214 28.9595C85.4236 28.9595 80.7236 33.6595 80.7236 39.4572C80.7236 45.2549 85.4236 49.9549 91.2214 49.9549Z" fill="white"/>
</svg>
